<svg xmlns="http://www.w3.org/2000/svg" fill="currentColor" viewBox="0 0 305 185" stroke="currentColor">
    <path stroke-linecap="round" stroke-linejoin="round" stroke-width="2" d="M288.7,39.74h-8.6c-3.3-19.8-15.5-30.1-36.8-31.2-10-.5-19.6,1.2-28.4,6.4-11.3,6.8-16.6,18.8-13.8,30.9,1.4,6.1,4.8,11.3,10.1,14.3a228.38,228.38,0,0,0,25.3,12.5c10.2,4.2,20.9,7.4,31.2,11.4,9.5,3.7,18.1,9,24.9,16.7,18.5,21,13.6,55.9-10,70.7-15.1,9.5-31.9,11.5-49.3,10.1a67.21,67.21,0,0,1-33.3-11.2c-14.3-9.7-21.1-23.3-21.4-40.8h8.7a96.2,96.2,0,0,0,1.5,9.6c3.5,14.8,13.3,24,27,29.2,18.7,7,37.5,6.4,55.8-1.4,29.7-12.5,28.5-49.3,9.8-65-8.1-6.8-17.5-10.8-27.3-14.3-11-3.9-22.1-7.7-33-12.1a80.21,80.21,0,0,1-14.4-7.8c-21.7-14.4-18.9-43.5-.8-57,17.8-13.3,47.6-14.5,66.1-2.2C282.9,15.94,288.4,26.24,288.7,39.74Z"/>
    <path stroke-linecap="round" stroke-linejoin="round" stroke-width="2" d="M133,171.44c-2,2.4-3.8,4.6-5.8,7-39.4-32.2-78.6-64.3-118.5-96.9v96.6H0V62.44C44.4,98.84,88.5,134.94,133,171.44Z"/>
    <path stroke-linecap="round" stroke-linejoin="round" stroke-width="2" d="M7.9,10.94c2-2.4,3.7-4.5,5.8-7.1C53,36,92.3,68,132.1,100.64V4H141v115.8C96.5,83.54,52.4,47.34,7.9,10.94Z"/>
</svg>