<svg xmlns="http://www.w3.org/2000/svg" fill="white" viewBox="0 0 1300.43 513.97" stroke="white">
    <path stroke-linecap="round" stroke-linejoin="round" stroke-width="2" d="M1043.62,189.24c-2.4,0-3.7-.1-4.9,0a49.52,49.52,0,0,1-20.9-2.1c-6.9-2.1-13.9-3.5-21-5.1a14.49,14.49,0,0,0-3.6-.3c-3.7.2-7.4.6-11.1.8-4.4.3-5.7,1.8-4.7,6a54.55,54.55,0,0,1,.9,13.5c-.1,7,.6,14.1,1.2,21.1.8,9.9,1.8,19.9,2.8,29.8.8,7.4,1.9,14.8,2.9,22.1,1.1,8.4,1,16.7-3.1,24.5-3.6,6.7-8.9,11.2-16.8,11.8a14.8,14.8,0,0,1-10.7-3.5,105.16,105.16,0,0,1-23.6-25.3,70.81,70.81,0,0,1-7.9-15.2,9,9,0,0,0-1.2-2c-1.3,2.9-2.3,5.4-3.5,7.9-2.7,5.6-5.5,11.2-8.4,16.7-2.5,4.7-5,9.4-7.8,13.9-4.5,7.5-11,13.3-17.6,18.9-3.5,2.9-7.8,3.4-12.1,3-6.9-.6-13.3-2.9-18.2-8.1a15.29,15.29,0,0,0-1.9-1.7c-.8.4-1.7.8-2.4,1.2-7.8,4.6-16.4,6.9-25.1,8.7a11.15,11.15,0,0,1-3.6.2c-11.6-1.8-21.6-6.1-27.9-17a59,59,0,0,1-7.1-20.1c-.9-5.1-2.4-10.1-3.5-15.1-.5-2.4-.8-4.9-1.3-8-1,1.3-1.6,2.1-2.2,2.9-2.6,4-5.3,8-7.9,12-1.9,3-3.4,6.3-5.3,9.3-3.3,5.3-7,10.1-12.8,12.8-7,3.3-14,6.4-21.1,9.6a21.1,21.1,0,0,1-12.9,1.4,11,11,0,0,0-5.1.1c-8.5,1.9-16.9,1.2-25.3-.5-17.7-3.7-30.5-13.9-39.5-29.1-.3-.6-.7-1.1-1.3-2.1-3.6,1.7-7.5,2.2-10.5,5.2-2.7,2.7-5.6,5.3-8.5,7.9a53.29,53.29,0,0,1-5.9,4.8,159,159,0,0,1-34.4,17.5c-6.4,2.4-13,2.7-19.7,2.5-5.2-.1-8.8-4.7-8.2-10.3.2-1.6.6-3.1,1-5.2-1.5.2-2.7.2-4,.4l-38.9,7.2c-5.9,1.1-11.8,2.2-17.6,3.3-.6.1-1.2.4-2.2.7,1,4.7,2,9.4,3.1,14,3.4,14.2,6.8,28.5,10.3,42.7,3.2,12.8,6.3,25.6,9.8,38.3a147.5,147.5,0,0,0,7.5,21.4c3,6.5,4.7,13.2,6.9,19.9a17.3,17.3,0,0,1,.8,5.1,5.73,5.73,0,0,1-3.6,5.7c-2.5,1.2-5.1,1.1-7.1-.8a24.39,24.39,0,0,1-4.7-5.9c-3.1-5.4-6-11-8.9-16.5-2-3.9-5.1-7.2-5.1-12,0-.9-.9-1.9-1.5-2.8-3.9-6.5-7.8-13-11.8-19.5-7.4-12-14.6-24.2-22.4-35.9-6.1-9.1-12.8-17.7-19.6-26.2a223.11,223.11,0,0,0-15.9-17.9c-8.9-8.9-18.2-17.6-29.2-24-11.5-6.7-13-21-6-30.9,3.5-4.9,8.2-8.3,13.1-11.6a2.28,2.28,0,0,1,.7-.3c5.5-.5,9.6-4.5,14.7-5.8s10.4-2.3,15.6-3.5l27.6-6.7c-.8-2.5-1.4-4.7-2.2-7.1-1.1.2-2,.2-2.9.4-34.7,9.8-69.5,19.4-104.2,29.4-23.1,6.6-45.5,15-67.8,23.7a18.33,18.33,0,0,0-2.1,1c1.1.9,1.9,1.5,2.7,2.1l22.8,14.7c12,7.7,24.1,15.3,36.1,22.9,4.6,2.9,9.2,5.9,13.9,8.7,6.7,4.1,13.5,8,20.1,12.2,4.5,2.9,8.7,6.1,13.1,9.1,3.8,2.6,7.8,5,11.6,7.6,8.8,6.2,11.5,15.4,11.6,25.5a19.76,19.76,0,0,1-6.4,14.2,15.17,15.17,0,0,0-2.6,3.5c-6,10.7-15.5,17.8-25.9,23.8a5.44,5.44,0,0,1-2.2,1c-3.4-.2-5.8,1.8-8.3,3.4-23.6,15.4-49.4,26.1-76,35.1-10.1,3.4-20.2,6.8-30.3,10.3-15.8,5.4-32.1,8.9-48.4,12-19.1,3.7-38.2,7.5-57.3,10.8-9.3,1.6-18.8,2.3-28.2,3.1-13.4,1.1-26.8,2.1-40.3,2.8-13.1.7-26.1-.3-39.1-1.8-4.2-.5-8.4-.5-12.7-.6-8-.1-16-.6-23.6-3.7-4.4-1.8-8.9-3.3-13.4-5a23.68,23.68,0,0,1-4.8-2.9c-5.1-3.7-6.9-8.8-6-15,.5-3.5.8-7.1,1-10.7.8-11.9,7.2-20.9,15.1-29.1a2.81,2.81,0,0,1,1.3-.9c3.2-.4,4.9-3,6.9-5.1,10.4-10.9,20.7-22,32.9-30.9,9.2-6.6,18.8-12.6,28.3-18.8,4.4-2.8,8.7-5.7,13.3-8.1,25.2-12.7,48.3-29.1,73.2-42.3,21-11.1,42.8-20.4,64.7-29.4,13.6-5.5,27.2-10.8,40.8-16.2,1.4-.5,2.7-1.1,4.3-1.8a21.94,21.94,0,0,0-1.9-1.7,345.09,345.09,0,0,1-31.8-23.6c-7.3-6-14.7-11.9-21.9-17.9a194.88,194.88,0,0,1-25.5-25.8c-7.7-9.5-15.7-18.8-23.6-28.2a86.26,86.26,0,0,1-14.8-25.8c-1.3-3.6-3.4-6.9-4.8-10.4a32.33,32.33,0,0,1-.8-21.9c.8-2.7,1.2-5.5,1.9-8.1,1.2-4.6,3.3-8.8,7.3-11.5,3-2,6.1-3.8,9.1-5.7a38.61,38.61,0,0,0,3.3-2.2,53.69,53.69,0,0,1,19.6-9.7c13-3.5,25.9-7.3,39.2-9.1,14-2,27.8-4.8,41.8-6.6,12.3-1.5,24.7-2.2,37.1-3,9.6-.7,19.2-1.4,28.7-1.4,15.7,0,31.5.4,47.2.8a296.2,296.2,0,0,1,37.7,4.1,25.93,25.93,0,0,0,5.5-.1,13.4,13.4,0,0,1,2-.1c7.1,1.1,14.2,2.2,21.3,3.5a55.64,55.64,0,0,1,9.1,2.8c2.8,1.1,5.5,2.7,8.7,1.9a4.75,4.75,0,0,1,2.7.7,41.41,41.41,0,0,1,12.7,8.9c3.5,3.9,7,7.7,10.4,11.6,3.8,4.3,2.6,10.1-2.5,12.2a7.08,7.08,0,0,1-8.1-1.8A113.22,113.22,0,0,1,484,114a29.92,29.92,0,0,0-10-8.4,7.17,7.17,0,0,1-3.4-2.7c-1.3-2.4-3.4-3.2-5.6-4.1-6.8-2.9-14.2-3.6-21.4-4.8-3.8-.6-7.6-.7-11.2-2.7-1.8-1.1-4.4-.9-6.6-1.3-18.5-3.2-37.1-3.6-55.8-4.2-8.7-.3-17.3-.8-26-.5-14.9.6-29.8,1.7-44.7,2.6-16.9,1-33.6,3.7-50.2,6.9-9.5,1.8-19.1,3.5-28.6,5.6-6.1,1.3-12.2,2.9-17.7,6a40.72,40.72,0,0,1-4.8,1.8c-6.8,2.5-13,5.9-18,11.4-1.6,1.7-4,2.7-5.8,4.3a12.68,12.68,0,0,0-3.5,4.2c-1.5,3.5-2.6,7.2-3.8,10.9a20.83,20.83,0,0,0,.2,13.7c1.8,5.5,2.5,11.4,5,16.7a89.94,89.94,0,0,0,9.4,16.2c6.5,8.4,13,16.8,19.5,25.3a224.23,224.23,0,0,0,36,36.8c5.6,4.6,11,9.7,16.6,14.4a352.09,352.09,0,0,0,33.5,24.5,6,6,0,0,0,5.9.5c15.6-5.8,31.1-12.1,46.9-17.1,22.4-7.2,45.1-13.6,67.8-20.1,19.3-5.6,38.7-10.8,58.1-16.2,1.1-.3,2.2-.7,3.7-1.2-1.1-2.3-2.1-4.3-3-6.5-2.8-6.8-5.4-13.6-8.3-20.3-.6-1.5-2.1-2.6-3.1-3.9a17.71,17.71,0,0,1-2.7-3.4q-7.5-14.85-14.7-29.7c-1.5-3.1-1.5-6.2.9-8.9a7.36,7.36,0,0,1,10.36-.91,7.26,7.26,0,0,1,1.14,1.21c.3.4.6.9.9,1.3,5.1,10.2,10.3,20.5,15.3,30.7a6,6,0,0,1,.8,3.4c-.6,2.5.6,4.4,1.4,6.4,2.8,6.9,5.7,13.8,8.3,20.7.8,2.2.9,4.6,1.4,7.4,1.8-.5,3.4-.9,5.1-1.4,31.8-8.8,63.5-18.3,95.5-26.3,35.5-8.9,71.4-16.5,107.1-24.4,27.1-6,54.2-11.5,81.3-17.2,5.2-1.1,10.5-1.9,15.8-2.8.2-1,.5-1.9.7-2.8,1.7-11.2,5.2-22,8.7-32.8.7-2,1.6-3.9.9-6.2a2.57,2.57,0,0,1,.1-1.2c2.6-8.4,4.6-17,10.6-23.9a18.72,18.72,0,0,0,2-3.4c4.7-10.7,21-15.4,30.1-8.7a15.45,15.45,0,0,1,5.6,8c2.4,8.4,3.8,17,2.4,25.6-1.4,8.9-3.4,17.7-5,26.6-.6,3.1-1,6.2-1.6,9.9,3.2-.4,5.7-.7,8.3-1.1,26.8-4,53.5-8.3,80.3-11.8,20.2-2.7,40.5-4.5,60.8-6.5,13.1-1.3,26.3-2.3,39.5-3.4,15.3-1.3,30.5-2.5,45.8-3.8,2-.2,3.9-.4,6.1-.7.4-3.2.8-6.2,1.1-9.3,1.1-12.6,2.1-25.2,3.3-37.8,1.1-12.1,2.5-24.1,3.5-36.2.2-2.7-.4-5.5-.3-8.3.2-5.2.7-10.4,1-15.5.2-2.7.3-5.3.5-8a10.16,10.16,0,0,1,.2-2.4,4.49,4.49,0,0,1,8.9.5,43,43,0,0,1-.1,5.2c-.4,6.9-.3,13.9-1.5,20.7-2.9,14.9-3.6,30.1-5.3,45.1-1.5,13-2.5,26-3.7,38.9-.2,2.1-.4,4.1-.6,6.6h2.3c20.3-.4,40.6-.3,60.8-1.3,13.2-.6,26.4-.9,39.5-.5,12.8.4,25.5,1.8,38.3,2.7,3.3.2,6.6,0,9.9.2a130.51,130.51,0,0,1,35.6,6.8c2.1.7,4.5.5,6.6,1.1a40.08,40.08,0,0,1,7.7,3.4c3.5,2,6.8,4.2,10.1,6.4a12.4,12.4,0,0,1,2.8,2.8,5.06,5.06,0,0,1-1,7.09h0c-2.1,1.6-6,1.6-7.3-.6-2.7-4.6-7.3-6.5-11.7-8.5-5.6-2.6-11-5.7-17.1-7.3-7.4-1.9-14.9-2.7-22.4-3.8-3.4-.5-6.8-1.3-10.2-1.8-4-.6-7.9-.9-11.9-1.3-19.5-2.1-39.1-2-58.7-1.8-6.2.1-12.5-.6-18.7-.5-15.1.2-30.1.5-45.2.9-3.2.1-6.3.5-9.7.7-.4,3.5-.9,6.7-1.1,10-.8,12.8-1.5,25.5-2.2,38.3,0,.8-.2,1.8.1,2.3,1.9,2.8,1.3,5.9,1.3,8.9-.1,14-.4,28-.5,41.9,0,6.5.3,13,.5,19.6,0,1.2.3,2.3.5,4.5a29.25,29.25,0,0,1,2.8-4.4c4.6-5.4,9-10.9,13.9-15.9a33,33,0,0,1,9.7-6.2c6.1-2.5,10.6.8,10.6,7.4a15.2,15.2,0,0,1-.5,4.3c-1.7,6-2.8,12.1-5.9,17.7-1.3,2.4-1.7,5.3-2.3,8a152,152,0,0,1-10.5,30.9c-2.5,5.4-4.7,11-7.2,16.4a41.6,41.6,0,0,1-3.2,6,163.39,163.39,0,0,1-17.9,21.9,26.51,26.51,0,0,1-13.1,7.4c-3.2.8-6.4,1.8-9.6,2.5a16.29,16.29,0,0,1-10.2-1.2q-7-3.45-13.8-7.2a12.26,12.26,0,0,1-3.1-2.5c-7.2-8.2-11.5-17.5-11.1-28.6a36.2,36.2,0,0,0-.5-5.6c-.9-8.3.3-16.5.8-24.7.9-14.2,4.5-27.8,9.8-41,2.6-6.5,6-12.8,9-19.1,1-2.1,2.1-4.2,1.6-6.8-.2-1.4.6-3.1,1.3-4.5,2-3.9,4.3-7.7,6.4-11.5C1041.82,193.34,1042.42,191.74,1043.62,189.24Zm-939,317.4c4.7,0,9.3.1,14,0,6.7-.3,13.3-.6,20-1.2,8.8-.8,17.6-1.3,26.2-2.8q29.1-5,58.1-10.8c14.7-3,29.6-5.6,43.9-10.4,13.1-4.4,26.1-9.1,39.1-13.9,10.8-3.9,21.5-7.9,32.1-12.1,15.6-6.2,29.5-15.3,43.8-23.8a3.06,3.06,0,0,0,1.5-1.2c1.1-2.7,3.6-3.8,5.9-5.1,8.6-5,15.7-11.4,20.6-20.1,1.4-2.5,2.6-5.2,4-7.8a11.51,11.51,0,0,0,1.2-7.7,46.77,46.77,0,0,1-1.1-5.1c-.3-4-2.6-6.5-5.6-8.7a42.79,42.79,0,0,1-4.4-4c-1.3-1.3-2.3-3-3.7-4-11-7.7-21.9-15.6-33.1-22.9-16.4-10.7-33.1-20.9-49.6-31.4q-13.2-8.55-26.1-17.7c-2.9-2-5.4-2.4-8.7-1-17.8,7.5-35.7,14.7-53.6,22-26.1,10.6-51.5,22.6-75.5,37.3-16.2,10-33.1,18.7-48.5,30-5,3.7-10.7,6.5-16,9.9-9.2,5.9-18.5,11.6-27.3,18.1-13.1,9.6-23.9,21.5-35.1,33.2-.5.5-1.1,1-1.2,1.6-.2,3.3-2.5,5.2-4.5,7.3-8.6,9-10.8,19.8-10,31.7a6.86,6.86,0,0,0,4.4,6.5c2,1,4.3,1.7,6,3.2,4,3.5,8.8,4.9,13.8,5.7,8.5,1.5,17,2.6,25.6,3.8A207,207,0,0,0,104.62,506.64Zm740.5-198.9c-4.2-9.4-3.6-17.9-4.8-28.2a6.69,6.69,0,0,1,.2-2.4c1.1-6.1,2.4-12.2,3.4-18.4a97.73,97.73,0,0,1,7.2-25.3,13.76,13.76,0,0,0,1.2-3.4,34.73,34.73,0,0,1,9.7-18.4c5.2-5,10.8-9.4,16.4-14a33.27,33.27,0,0,1,14.4-6.6c2.1-.5,4.1-1.1,6.2-1.4,6.2-1,12.7-1.8,18.4,1.5,14.2,8.2,18,19.1,13.2,34.5-.8,2.7-2.4,5.3-2.3,8,.2,9.8.6,19.7,5.5,28.7a24.17,24.17,0,0,1,1.4,2.9c3.9,9.7,10.8,17.3,17.8,24.8a14.32,14.32,0,0,0,1.8,1.5c2.1,1.6,4.3,3.2,6.3,4.8,2.7,2.1,4.2,2.2,6.5-.2a18.63,18.63,0,0,0,2.8-4.8c.8-1.9.9-4.4,2.1-6,2.3-3,1.8-5.9,1.1-9.1a33.2,33.2,0,0,1-.8-4.3c-.4-5.4-.7-10.9-1.2-16.3-.9-10.1-1.7-20.2-2.9-30.2-1.4-12.1-1.8-24.4-4.4-36.4-2.2-10,5.1-19.2,15.6-19.9s20.4,1.2,30.3,4.1,20.1,5.1,30.7,3.7a10.87,10.87,0,0,1,3.6.1c8.7,1.1,13.6,7.7,12.2,16.4a9.56,9.56,0,0,1-1.1,3.4c-4.2,7-6.8,15-12.7,21a7.14,7.14,0,0,0-1.1,2.1c-2,4.1-4,8.1-5.9,12.2-5.7,12.2-10.5,24.7-12.2,38.2-.8,6.3-1.2,12.7-2,19.1-1,9.3,1.1,18.3,2.7,27.3a10.89,10.89,0,0,0,1.6,4c3.3,4.8,6.6,9.3,12.4,12,5.1,2.4,9.8,4.3,15.6,3,4.4-1,8.5-2.1,11.8-5.3a61.33,61.33,0,0,1,5.2-5,53.55,53.55,0,0,0,13.9-16.8c3.2-6,6.1-12.1,9.1-18.2,7.5-15.3,10.9-31.8,14.1-48.4,0-.1-.1-.2-.5-.7-2.5,2.9-4.7,5.8-7.3,8.4-5.9,6-9.2,13.2-11,21.3a30.29,30.29,0,0,1-2.1,6,5.24,5.24,0,0,1-5.3,2.9,5.31,5.31,0,0,1-4.9-3.5,13.35,13.35,0,0,1-.8-3.9c-.2-1.3-.1-2.7-.3-4a199,199,0,0,1-2.9-32.6c0-17.8.3-35.7.6-53.5a21.59,21.59,0,0,1,.8-4.3,36.9,36.9,0,0,0,1.1-4.5c.8-12.5,1.5-25,2.3-37.5.2-3,.5-6,.8-9.4q-1.5-.08-3,0c-9.4.6-18.9,1.3-28.3,1.9-8.1.6-16.2,1-24.3,1.7-17.4,1.4-34.8,2.8-52.2,4.5-15.1,1.5-30.2,3-45.3,5.1-23.4,3.2-46.7,6.7-70,10.2-5.8.8-11.5,1.8-16.7,2.6-2.1,6.2-3.9,11.9-6,17.4-1.1,3-2.8,5.7-4.2,8.6-12.2,24.7-23.5,49.8-38.1,73.3a5.88,5.88,0,0,0-.7,3.7c.6,4.3,1.6,8.6,2.4,12.9s1.4,8.4,2.5,12.5c1,3.7,2.9,7.2,3.7,10.9a32.26,32.26,0,0,0,8.2,15.3c4.5,4.9,10.4,6.8,16.8,7.1,3.4.1,6.9-.8,10.3-1.5a30.62,30.62,0,0,0,11.4-5.2Zm-143.5-3c-2.1-4.4-4-7.8-5.4-11.4s-2.7-7.7-1.4-11.7c2.9-8.7,6.1-17.3,9.2-25.9a23.27,23.27,0,0,1,1.1-2.1c5.6-9.5,11.6-18.6,19.2-26.9,8.7-9.5,19.2-15.8,30.8-20.8a19.84,19.84,0,0,1,4.2-1.1c6.3-1,12.6-1.9,18.8-2.9,1.5-13.2,3-26.6,4.5-40.3-1.5.1-2.9.2-4.1.4-8.9,1.6-17.8,3.2-26.7,5.1-33.6,7.2-67.1,14.7-100.7,21.8-56.8,12-112.9,26.9-168.6,43.3-1,.3-1.9.8-2.9,1.2.9,2.7,1.6,5,2.4,7.5,1.2-.2,2.1-.2,3-.4,7-1.2,13.9-2.5,20.9-3.7,22.2-3.7,44.5-6.7,66.5-11.7,10.5-2.4,21.1-4.3,31.5-7.3,2.9-.9,5.9-1.6,8.8-2.5,3.6-1.1,6.6-.2,8.3,2.7a6.48,6.48,0,0,1-1.6,8.6,21,21,0,0,1-4.7,3c-7.3,3.3-14.6,6.4-22,9.6a20.65,20.65,0,0,1-3.5.6,19.31,19.31,0,0,0-4.2.7c-12.1,4.9-24.3,9.6-36.2,14.8-17.8,7.8-35.5,15.9-53.2,23.8a43.7,43.7,0,0,0-4.1,2.2c1.9,8.4,3.7,16.6,5.6,25.1,3.6-.6,6.8-1.2,10.1-1.6,7.4-1,14.8-1.7,22.1-3,11.1-2,22.2-4.5,33.3-6.5a11,11,0,0,0,7.1-4.5c2.4-3,5-5.9,7.6-8.6,2-2.1,4.4-3.8,6.5-5.9,8.2-7.9,17.9-13.9,27.3-20.1a39.53,39.53,0,0,1,5-2.5c4.9-2.1,9.8-4.2,14.7-6.2,3.4-1.4,6.9-2.5,10.5-2s5.9-.8,7.2-4.1c.3-.7.9-1.3,1.2-2.1,3.2-7.2,8.6-12.7,14.6-17.7a13,13,0,0,1,8-3.3c3.4-.2,6,1.4,7,4.7a12.75,12.75,0,0,1,.5,5.1,46.77,46.77,0,0,1-6.5,16.6c-1.8,3.1-3.9,5.9-5.6,8.5,1.9,3.2,3.8,5.8,5,8.7,2.1,5.1.1,10.2-4.7,13a54.78,54.78,0,0,1-5.5,2.4c-.8.3-1.5.8-2.5,1.2,1.2,1.9,1.9,3.6,3.2,5,3.1,3.3,6.5,6.3,9.5,9.7,4.4,5.1,10.1,7.7,16.5,8.8,4,1,7.9,1.8,12.4,2.7Zm-225.7-52.9c-1.8.4-3,.6-4.1.9-7.3,2.1-14.6,4.2-21.9,6.2-4.2,1.1-8.6,1.8-12.9,2.9-5.4,1.4-10.9,2.7-14.1,8-.6,1-1.9,1.5-2.8,2.2-1.9,1.5-3.9,2.9-5.6,4.5a14.52,14.52,0,0,0-3.1,4.6c-1.7,4.1-.8,8.1,2.2,9.9a63.72,63.72,0,0,1,15.2,12.2c4.1,4.7,9,8.7,13.2,13.3,5.8,6.4,11.3,13.1,16.8,19.7a297.28,297.28,0,0,1,21.8,29.5c7.3,11.3,14.8,22.4,22.1,33.7,3.5,5.4,6.6,10.9,10,16.4a23.94,23.94,0,0,0,1.7,2.3c.2-.8.5-1.2.4-1.5-7.9-33.1-15.7-66.1-23.7-99.7-4.6.7-9.5-.8-14.3,1.2a8.43,8.43,0,0,1-3.9.2c-5.3-.4-10.6-.8-15.9-1.5-4.9-.6-9.7-1.9-13.7-5-6.1-4.7-6-11.6.3-16a47.38,47.38,0,0,1,6.2-3.6c4.7-2.4,9.6-4.7,14.2-7.2,5.8-3.2,11.5-6.6,17.6-10.1-1.9-7.3-3.7-15-5.7-23.1Zm379.5,50a35.94,35.94,0,0,0,4.4-2.9c5.2-4.5,10.6-8.9,15.6-13.7,13.6-12.9,24.8-27.8,34.5-43.7,2.6-4.3,5.4-8.8,4.4-14.5-.4-2.4,1.1-4.3,3.1-5.7.7-.5,1.6-1.1,1.8-1.9a13.44,13.44,0,0,0-12.9-17.8c-9.1.1-17.3,2.3-24.3,8.5-2.8,2.4-6.2,4.1-9,6.5a27.74,27.74,0,0,0-5.8,6,101,101,0,0,0-6.9,13,72.21,72.21,0,0,0-6.1,19.3c-.8,5.1-1.2,10.3-2.4,15.3-2.4,9.9.5,19.2,2.2,28.7a14.91,14.91,0,0,0,1.4,2.9Zm-76.6-86.3c-.7-.2-1.3-.7-1.9-.6-4.1.2-8.2.4-12.3.8a27.65,27.65,0,0,0-7,1.7c-8.5,3.5-16.9,7.3-23,14.6a12.52,12.52,0,0,1-1.2,1.1c-10.7,9.2-17.3,21.1-22.3,34-1.3,3.4-1.7,7.2-2.9,10.7-2.3,7.1-2.4,7.1.7,13.8a16,16,0,0,0,1.6,3.2,43.48,43.48,0,0,0,4.7,4.8c2,1.7,4.2,1.8,6.6.2a67.77,67.77,0,0,1,8.4-4.6c14-6.3,26.1-14.8,34.7-27.8a14.57,14.57,0,0,1,1.5-1.9,96.94,96.94,0,0,0,11.8-19.8,10,10,0,0,0,.9-3.8c0-8,0-15.9-.1-23.9a23.18,23.18,0,0,0-.2-2.5Zm49.6-64.7c.2-1,.3-1.6.4-2.3.8-5.9,1.2-11.9,2.6-17.7,2-8.4,1.6-16.9,2.1-25.3a6.74,6.74,0,0,0-.2-2c-1.1-3.8-2.2-7.6-3.2-11.5a3.2,3.2,0,0,0-2.8-2.4c-2.2-.4-3.9.5-5.5,1.8-1.8,1.4-3.3,3.3-5.2,4.3-3.9,1.9-5.9,5.2-7.5,8.9-.7,1.6-1.2,3.2-1.8,4.9s-.9,3.3-1.6,4.9c-1.3,2.9-3.2,5.5-4.1,8.5-3,9.8-5.7,19.6-8.4,29.5a24.59,24.59,0,0,0-.4,4.2c12.1-2,23.8-3.9,35.6-5.8Zm-.2,4.1c-1-.3-1.3-.5-1.5-.4l-33.1,5.1c-1.9.3-2.2,1.6-2.4,3.1-.7,4.2-1.6,8.4-2.1,12.6-1,9-1.8,18-2.7,27a4.93,4.93,0,0,0,2.2,4.7,17.84,17.84,0,0,1,7.4,13.6,8.8,8.8,0,0,0,.5,1.5c.5-.7.8-1,1-1.3q13.65-27.9,27.2-55.9c1.5-3.2,2.28-6.5,3.5-10Zm-343.7,95c1.8,7.4,3.5,14.4,5.2,21.5,27.4-11.9,54.4-23.7,81.3-35.5-28.7,5-57.7,8.2-86.5,14Zm158.4,7.3a11.6,11.6,0,0,0-7.6.9c-3.1,1.3-6.1,2.7-9.2,3.8a53.53,53.53,0,0,0-15.2,7.8c-2.7,2-5.5,3.8-8.2,5.6a70.24,70.24,0,0,0-16.2,15.1c5-1,9.8-2.5,14.6-3.7a241.32,241.32,0,0,0,28.6-8.5,29.09,29.09,0,0,0,12.1-8.5c.3-4.3.7-8.2,1.1-12.5Zm270.4-1.6c-15,19.4-30.4,38.4-49.8,53.8,2.7,3.2,6.5,3.8,10.3,4.3a5.74,5.74,0,0,0,5.1-1.6c1.7-1.7,3.6-3.1,5.4-4.7,2.1-1.9,4.4-3.6,6-5.8,4.9-7,9.6-14,14-21.3,4.6-7.5,6.9-16,9-24.7Zm-458,47.8c1.52.34,3.06.61,4.6.8,4.9.5,9.8.9,14.7,1.4a8.09,8.09,0,0,1,3.5.7c3.6,2.1,7.4,1,11.5,1.1-1.8-7.5-2.9-14.7-5.2-22.1-5.4,3.2-10.7,5.6-15.1,9.2a62.86,62.86,0,0,1-10.2,6.8,27.57,27.57,0,0,0-3.8,2.1Zm119.5,4.9c2.2-.2,3.9-.1,5.4-.6,5.6-2,11.2-4.1,16.8-6.2,4.6-1.8,9.1-3.7,13.6-5.6,1-.4,1.8-1.1,3.5-2a13.47,13.47,0,0,0-2.2,0c-9.7,2.1-19.4,4.4-29.2,6.3-3.5.7-5.8,2.1-6.8,5.6a25.27,25.27,0,0,0-1.1,2.5Z"/>
</svg>