<svg xmlns="http://www.w3.org/2000/svg" viewBox="0 0 109.752 80.034">
  <defs>
    <clipPath id="clip-path">
      <rect id="Rettangolo_411" data-name="Rettangolo 411" width="109.752" height="80.034" transform="translate(0 0)" />
    </clipPath>
  </defs>
  <g id="Raggruppa_984" data-name="Raggruppa 984" transform="translate(0 0)" clip-path="url(#clip-path)">
    <path fill="#fff" id="Tracciato_137" data-name="Tracciato 137" d="M14.882,38.975c4,0,8-.09,11.992.036,2.085.067,2.978-.366,3.243-2.759,1.534-13.843,8.335-24.5,20.5-31.284a40.083,40.083,0,0,1,49.874,9.242c11.431,13.324,12.5,34.5,1.965,48.941C92.447,76.873,75.641,82.969,59.642,78.681,43.387,74.325,31.915,60.77,30.064,43.493c-.228-2.133-1-2.553-2.923-2.532C19.23,41.048,11.317,41,3.4,41c-.666,0-1.333.013-2-.022s-1.4.006-1.406-.98S.731,39.007,1.39,39c2.665-.026,5.33-.021,8-.024q2.75,0,5.5,0M67.654,41H37.9c-6.619,0-6.619,0-5.279,6.545a38.019,38.019,0,0,0,74.528-15.079C103.4,13.759,86.676,1.077,67.082,2.084,49.155,3.005,33.815,18,32.042,36.256c-.2,2.05.312,2.782,2.485,2.762,10.24-.1,20.482-.034,30.722-.063.659,0,1.494.373,2.047-.593a14.728,14.728,0,0,1-2.841-3.742c-.219-.466-.376-1,.155-1.333.648-.407.887.226,1.106.619a13.234,13.234,0,0,0,5.071,5.042c1.032.6,1.365,1.253.126,1.983a13.456,13.456,0,0,0-5.244,5.213c-.185.341-.4.819-.92.6-.6-.256-.528-.788-.338-1.276C65.022,43.9,66.328,42.8,67.654,41"/>
  </g>
</svg>
