<?xml version="1.0" standalone="no"?>
<!DOCTYPE svg PUBLIC "-//W3C//DTD SVG 20010904//EN"
 "http://www.w3.org/TR/2001/REC-SVG-20010904/DTD/svg10.dtd">
<svg version="1.0" xmlns="http://www.w3.org/2000/svg"
 width="500.000000pt" height="500.000000pt" viewBox="0 0 500.000000 500.000000"
 preserveAspectRatio="xMidYMid meet">
<metadata>
Created by potrace 1.14, written by Peter Selinger 2001-2017
</metadata>
<g transform="translate(0.000000,500.000000) scale(0.100000,-0.100000)"
fill="#000000" stroke="none">
<path d="M3589 3706 c-2 -2 -24 -6 -49 -9 -127 -17 -283 -92 -369 -177 -148
-148 -184 -389 -84 -560 41 -71 133 -154 227 -205 107 -58 165 -82 406 -165
341 -118 423 -158 530 -262 103 -101 150 -206 156 -353 8 -205 -73 -360 -241
-461 -200 -120 -548 -147 -786 -60 -86 31 -112 45 -187 100 -113 83 -182 202
-206 356 l-12 75 -54 0 -55 0 2 -71 c8 -248 182 -466 456 -569 129 -48 226
-63 396 -60 164 3 168 3 296 36 268 68 445 238 500 479 15 65 15 236 0 309
-18 89 -79 201 -151 276 -113 117 -253 190 -569 298 -399 136 -547 222 -612
355 -24 50 -28 69 -28 147 0 82 3 97 33 157 82 166 268 259 507 253 168 -5
290 -47 386 -133 74 -66 129 -174 129 -254 0 -27 1 -28 60 -28 l60 0 0 33 c0
40 -25 137 -47 186 -60 131 -208 240 -388 287 -62 15 -294 31 -306 20z"/>
<path d="M616 3613 l-37 -48 23 -18 c70 -57 118 -96 282 -230 100 -82 199
-163 221 -181 73 -61 608 -498 800 -655 105 -85 206 -168 225 -185 20 -17 56
-47 80 -66 39 -31 60 -48 133 -109 16 -13 17 24 17 762 l0 777 -60 0 -60 0 -2
-645 -3 -645 -215 176 c-118 97 -232 191 -254 208 -128 103 -155 125 -376 307
-96 79 -260 214 -365 298 -104 85 -192 157 -195 160 -3 4 -39 33 -80 66 -41
32 -76 63 -78 67 -7 16 -20 7 -56 -39z"/>
<path d="M470 2107 l0 -777 60 0 60 0 2 645 3 645 355 -290 c195 -160 387
-317 425 -348 39 -32 171 -141 295 -241 124 -101 243 -198 265 -217 142 -117
239 -193 244 -189 4 2 21 23 38 47 l31 44 -420 344 c-232 190 -563 461 -737
603 -174 142 -327 268 -341 280 -14 12 -48 40 -75 61 -28 22 -57 46 -65 52
-16 14 -94 79 -122 103 -17 13 -18 -24 -18 -762z"/>
</g>
</svg>
