<svg xmlns="http://www.w3.org/2000/svg" width="1168.75" height="684.51654" viewBox="0 0 1168.75 684.51654">
    <path d="M250.40651,699.981l-10.43083,29.20168H216.53256V699.39693c1.72872-37.36646,22.69554-54.93424,23.34966-55.47151-15.75722,15.1965-14.00512,67.73621-14.00512,67.73621,10.51261-45.55462,19.85714-46.72269,19.85714-46.72269-5.65347,8.4918-8.57364,47.11979-8.74881,49.526C237.68624,706.34694,250.40651,699.981,250.40651,699.981Z" transform="translate(-15.625 -107.74173)" fill="#f2f2f2"/>
    <path d="M975.77626,703.95234v25.2303H957.753l-8.84228-24.77473S958.99114,709.454,959.55179,715.89c-.14016-1.98573-2.45291-32.54234-6.93832-39.27042,0,0,7.41727.92275,15.75721,37.05106,0,0,1.37838-41.66494-11.10826-53.7194C957.788,660.38345,974.40964,674.30679,975.77626,703.95234Z" transform="translate(-15.625 -107.74173)" fill="#f2f2f2"/>
</svg>