<svg xmlns="http://www.w3.org/2000/svg" width="1168.75" height="684.51654" viewBox="0 0 1168.75 684.51654">
    <path d="M660.34,631.06H631.93l-.19-2.33-2.07-25.97v-.01l-2.15-27,13.11-55.69,11.14,11.14V584.27s6.55,9.83,5.24,12.45-2.62,2.62-1.31,4.58c1.31,1.97,2.62,3.28,1.31,4.59a4.92,4.92,0,0,0,0,5.9c1.31,1.31,3.93,3.27,1.96,5.24-1.96,1.96-4.58.65-1.96,7.86a23.00135,23.00135,0,0,0,1.8,3.84A25.502,25.502,0,0,0,660.34,631.06Z" transform="translate(-15.625 -107.74173)" fill="#d0cde1"/>
    <polygon points="557.189 343.847 553.258 383.159 593.225 389.056 596.173 366.452 599.122 343.847 557.189 343.847" fill="#ffb9b9"/>
    <polygon points="557.189 343.847 553.258 383.159 593.225 389.056 596.173 366.452 599.122 343.847 557.189 343.847" opacity="0.1"/>
    <circle cx="579.13804" cy="325.17394" r="31.44965" fill="#ffb9b9"/>
    <path d="M515.29,631.06c-.11-.23-.23-.47-.35-.73-.23-.49-.48-1.02-.75-1.6-1.74-3.88-3.87-9.4-2.64-11.05,1.97-2.62,2.62-5.24,1.31-6.55s-5.24,1.31-1.31-1.97c3.93-3.27,5.24-1.31,3.93-5.24s-3.93-1.96-1.31-3.93c2.62-1.96,4.59-1.31,3.28-3.27-1.31-1.97-3.93-1.97-1.31-3.28s4.59,0,3.93-3.28c-.66-3.27-1.31-1.96,0-3.27.34-.34,1.53-3.64,3.12-8.35,4.45-13.31,11.95-37.86,11.95-38.83,0-1.31-10.48-42.58-10.48-42.58l-4.59-2.63s-20.31,13.76-26.86,44.56c-6.56,30.79-11.14,38.66-11.14,38.66s-6.55,1.31-1.97,5.89c4.59,4.59,4.59,3.93.66,6.55s-6.55-2.62-3.93,2.62c2.62,5.25,5.89,3.94,3.27,7.21-2.62,3.28-7.2,3.28-4.58,5.9s-2.62,8.52.65,11.14c3.28,2.62,4.59,3.27,4.59,7.86a24.2678,24.2678,0,0,0,.31,3.84,19.59679,19.59679,0,0,0,.48,2.33c.15.61.3,1.07.4,1.36Z" transform="translate(-15.625 -107.74173)" fill="#d0cde1"/>
    <polygon points="499.665 523.318 502.335 523.318 502.475 522.388 499.315 522.588 487.825 523.318 466.325 524.678 499.665 523.318" fill="#3f3d56"/>
    <path d="M529.24,603.27l-5.89-20.31-.16-4.42-3.12-84.04,38.66-13.75L565.28,475.5s1.31-15.07,3.28-16.38c.71-.47,1.85.08,3.36,1.36,2.65,2.25,6.45,6.74,11.05,11.75,7.21,7.86,22.28,6.55,26.86005,3.93a15.46778,15.46778,0,0,1,1.83-.91c3.29-1.36,4.72-.4,4.72-.4,3.28,2.62-4.58,11.14-4.58,11.14s2.62,5.89,19.65,11.79c17.04,5.9,20.32,33.42,20.32,33.42s-20.32,55.03-19.66,58.96c.56,3.37-1.76,10.59-2.44,12.59v.01c-.11.32-.18.51-.18.51l1.49,25.46.14,2.33H532.01a13.47767,13.47767,0,0,0-1.11-2.33c-.11-.18-.23-.37-.35-.56C524.66,618.99,529.24,603.27,529.24,603.27Z" transform="translate(-15.625 -107.74173)" fill="#d0cde1"/>
    <path d="M563.09532,436.94441s-3.26589-4.89882-2.00978-10.17448a30.83664,30.83664,0,0,0,.87928-9.16959s2.63783-8.54154,5.27565-13.31475,1.38172-6.783,9.672-8.29032,4.89882-12.30986,26.75511-.62805a6.40974,6.40974,0,0,0,6.65737,2.51222c4.522-.87928,6.15494,5.40126,6.15494,5.40126s3.01466-1.75855,4.14515.75367,9.19122-1.50778,9.19122,15.44968-9.17281,32.10485-9.17281,32.10485.67245-28.52449-14.27524-31.41354-31.02588-11.305-34.91981-.50244A82.35048,82.35048,0,0,1,563.09532,436.94441Z" transform="translate(-15.625 -107.74173)" fill="#2f2e41"/>
    <ellipse cx="605.34609" cy="332.05355" rx="2.9484" ry="3.93121" fill="#ffb9b9"/>
</svg>