<svg xmlns="http://www.w3.org/2000/svg" width="1168.75" height="684.51654" viewBox="0 0 1168.75 684.51654">
    <polygon points="747.563 670.5 14.017 670.5 14.017 275.693 16.353 275.693 16.353 668.164 747.563 668.164 747.563 670.5" fill="#3f3d56"/>
    <path d="M777.20483,792.25827a15.18488,15.18488,0,1,1,15.18488-15.18487A15.20245,15.20245,0,0,1,777.20483,792.25827Zm0-28.03361a12.84874,12.84874,0,1,0,12.84874,12.84874A12.86328,12.86328,0,0,0,777.20483,764.22466Z" transform="translate(-15.625 -107.74173)" fill="#3f3d56"/>
    <path d="M30.80987,384.60281a15.18488,15.18488,0,1,1,15.18488-15.18488A15.20172,15.20172,0,0,1,30.80987,384.60281Zm0-28.03362a12.84874,12.84874,0,1,0,12.84874,12.84874A12.86328,12.86328,0,0,0,30.80987,356.56919Z" transform="translate(-15.625 -107.74173)" fill="#3f3d56"/>
</svg>